Coordinates
version=1
nRows=28
nColumns=34
inDegrees=no

Units are S.I. units (second, meters, Newtons, ...)
If the header above contains a line with 'inDegrees', this indicates whether rotational values are in degrees (yes) or radians (no).

endheader
time	pelvis_tilt	pelvis_list	pelvis_rotation	pelvis_tx	pelvis_ty	pelvis_tz	hip_flexion_r	hip_adduction_r	hip_rotation_r	knee_angle_r	ankle_angle_r	subtalar_angle_r	mtp_angle_r	hip_flexion_l	hip_adduction_l	hip_rotation_l	knee_angle_l	ankle_angle_l	subtalar_angle_l	mtp_angle_l	lumbar_extension	lumbar_bending	lumbar_rotation	arm_flex_r	arm_add_r	arm_rot_r	elbow_flex_r	pro_sup_r	arm_flex_l	arm_add_l	arm_rot_l	elbow_flex_l	pro_sup_l
0.45	0.0744438	-0.0857518	-0.0120323	0.361679	1.04253	-0.20672	-0.224847	0.137542	-0.253365	0.158116	0.320393	0.307015	-0.0130187	0.347211	-0.109736	-0.345687	0.0459303	-0.00202396	0.233138	-0.00962684	-0.331189	0.126542	0.182015	0.115701	-0.309573	-0.144537	0.768745	1.96105	-0.27952	-0.18027	-0.187705	0.687916	1.95116
0.46	0.0715919	-0.0874797	-0.0154578	0.374307	1.03993	-0.206811	-0.231194	0.135626	-0.257633	0.168297	0.33256	0.318916	-0.0130411	0.343308	-0.101597	-0.332644	-0.00137557	0.0046206	0.25509	-0.00968115	-0.32931	0.127165	0.182547	0.120297	-0.310809	-0.147238	0.774069	1.96093	-0.281877	-0.175419	-0.196602	0.680428	1.9489
0.47	0.0693045	-0.0887798	-0.0188193	0.387049	1.03741	-0.206874	-0.237844	0.133048	-0.261657	0.179412	0.343891	0.330328	-0.0130635	0.341347	-0.0952777	-0.317487	-0.0339024	0.0121575	0.272238	-0.00973547	-0.327921	0.127155	0.182563	0.124358	-0.311079	-0.150439	0.779337	1.96079	-0.283528	-0.1713	-0.203917	0.672391	1.94697
0.48	0.067659	-0.0894626	-0.02213	0.399933	1.03501	-0.206887	-0.244947	0.129633	-0.265281	0.191213	0.354078	0.340989	-0.0130859	0.341125	-0.0906659	-0.302163	-0.0516005	0.0202483	0.285116	-0.00978977	-0.327002	0.126211	0.18206	0.127727	-0.310306	-0.154149	0.784554	1.96068	-0.284464	-0.168064	-0.209452	0.663905	1.94561
0.49	0.0667134	-0.0893392	-0.0253662	0.412988	1.03276	-0.206839	-0.252637	0.125165	-0.268439	0.203492	0.36283	0.350698	-0.0131084	0.342204	-0.0873949	-0.288269	-0.0554715	0.028274	0.294469	-0.00984407	-0.326534	0.124032	0.18104	0.130232	-0.308454	-0.158376	0.789713	1.96064	-0.284684	-0.165808	-0.213082	0.655126	1.94511
0.5	0.0665204	-0.0881877	-0.0284843	0.42624	1.03069	-0.206732	-0.26102	0.119429	-0.271117	0.216117	0.369853	0.359276	-0.0131308	0.344063	-0.0849659	-0.276907	-0.0472223	0.03544	0.301051	-0.00989837	-0.326529	0.120366	0.179508	0.13171	-0.305529	-0.163115	0.794778	1.9607	-0.284186	-0.164574	-0.214765	0.646265	1.94583
0.51	0.06718	-0.0858039	-0.0314489	0.439715	1.02884	-0.206585	-0.270145	0.112239	-0.273314	0.229043	0.37484	0.366522	-0.0131532	0.346201	-0.0828451	-0.268658	-0.0289989	0.0409008	0.305454	-0.00995266	-0.327	0.115028	0.177486	0.132031	-0.30158	-0.168327	0.799671	1.96086	-0.28297	-0.164345	-0.21455	0.637572	1.94807
0.52	0.0687334	-0.0820587	-0.0342483	0.453418	1.02724	-0.206416	-0.279981	0.103448	-0.275005	0.242335	0.37745	0.372177	-0.0131757	0.348125	-0.080527	-0.26362	-0.00323409	0.043867	0.307982	-0.0100069	-0.327974	0.107895	0.175021	0.131114	-0.296693	-0.173925	0.804262	1.96108	-0.281041	-0.165047	-0.212575	0.629316	1.95206
0.53	0.0711694	-0.0768852	-0.0369207	0.467344	1.02591	-0.206245	-0.290374	0.0929642	-0.27612	0.256181	0.377297	0.375919	-0.0131981	0.349323	-0.0775714	-0.261483	0.0274479	0.0436958	0.308556	-0.0100612	-0.329452	0.0989224	0.172188	0.128939	-0.290978	-0.179771	0.808378	1.9613	-0.278419	-0.166554	-0.20905	0.621759	1.95788
0.54	0.0744218	-0.070276	-0.0395455	0.481487	1.02488	-0.206086	-0.301023	0.0807491	-0.276572	0.270899	0.373943	0.377382	-0.0132206	0.349311	-0.0736315	-0.261643	0.060459	0.0400117	0.306732	-0.0101155	-0.331399	0.0881433	0.169074	0.12555	-0.284557	-0.185692	0.811816	1.96143	-0.275137	-0.168709	-0.204225	0.615133	1.96542
0.55	0.0783663	-0.0622935	-0.0422129	0.495838	1.02414	-0.205948	-0.311477	0.066831	-0.276265	0.286941	0.366902	0.376171	-0.0132431	0.347751	-0.0684929	-0.263395	0.0935939	0.0328507	0.301907	-0.0101698	-0.333729	0.0756723	0.165755	0.121051	-0.277554	-0.191493	0.814365	1.96138	-0.271235	-0.171342	-0.198369	0.60963	1.97436
0.56	0.082817	-0.0530772	-0.0449851	0.510373	1.02369	-0.205838	-0.321134	0.0513194	-0.275119	0.304879	0.355641	0.371876	-0.0132655	0.344544	-0.0620961	-0.266069	0.125302	0.0227493	0.293582	-0.010224	-0.336304	0.0617128	0.162257	0.115587	-0.270086	-0.196975	0.815836	1.9611	-0.266767	-0.174285	-0.191746	0.605403	1.98419
0.57	0.0875351	-0.0428327	-0.0478636	0.525063	1.02354	-0.20576	-0.329276	0.0344055	-0.273078	0.325378	0.339606	0.364098	-0.013288	0.339844	-0.054519	-0.26909	0.154774	0.0107321	0.281563	-0.0102783	-0.338939	0.0465531	0.158546	0.109328	-0.262267	-0.201953	0.816084	1.96054	-0.261794	-0.177387	-0.184604	0.602568	1.99426
0.58	0.0922538	-0.0318048	-0.0507736	0.539872	1.02364	-0.205722	-0.33512	0.0163396	-0.270126	0.349154	0.318265	0.352495	-0.0133105	0.334001	-0.0459213	-0.271954	0.181831	-0.00181453	0.266047	-0.0103326	-0.341424	0.0305436	0.154516	0.102455	-0.254202	-0.20627	0.815029	1.95971	-0.25638	-0.180524	-0.177166	0.601213	2.00388
0.59	0.096711	-0.0202437	-0.0535696	0.554753	1.02398	-0.205738	-0.337886	-0.00260588	-0.266293	0.376913	0.291166	0.336828	-0.013333	0.327443	-0.036471	-0.274199	0.206689	-0.0133546	0.247595	-0.0103869	-0.343553	0.0140563	0.150004	0.0951421	-0.245992	-0.209814	0.812661	1.95867	-0.25058	-0.183605	-0.169626	0.601393	2.01242
0.6	0.100676	-0.00837577	-0.0560618	0.56966	1.02453	-0.205831	-0.336868	-0.0221759	-0.261644	0.409284	0.257993	0.317001	-0.0133554	0.320561	-0.0262864	-0.275396	0.229688	-0.0224489	0.227041	-0.0104411	-0.345157	-0.00255865	0.14482	0.0875528	-0.237738	-0.212528	0.809041	1.95749	-0.244429	-0.186571	-0.162137	0.603131	2.01941
0.61	0.103966	0.00361658	-0.058057	0.584548	1.02526	-0.206021	-0.3315	-0.0421527	-0.256253	0.446743	0.218622	0.293076	-0.0133779	0.313621	-0.0154201	-0.275191	0.251086	-0.0279703	0.205373	-0.0104954	-0.346128	-0.0190017	0.138791	0.0798327	-0.22954	-0.214406	0.804289	1.9563	-0.237927	-0.189394	-0.154814	0.606401	2.02461
0.62	0.106463	0.0155939	-0.0594031	0.599376	1.02613	-0.206322	-0.321394	-0.0623516	-0.250175	0.489543	0.17317	0.265266	-0.0134004	0.306736	-0.00389048	-0.273384	0.270958	-0.0292399	0.183626	-0.0105497	-0.346428	-0.0350311	0.131805	0.0721101	-0.221503	-0.21549	0.798563	1.95525	-0.231038	-0.192074	-0.147718	0.611122	2.02802
0.63	0.10811	0.0274402	-0.0600274	0.614107	1.02711	-0.206739	-0.30637	-0.0825953	-0.243422	0.537654	0.12203	0.233907	-0.0134229	0.299892	0.00826004	-0.269984	0.289208	-0.0260669	0.162789	-0.010604	-0.34608	-0.0504534	0.123852	0.0644957	-0.213736	-0.215849	0.792044	1.95447	-0.223684	-0.194623	-0.140842	0.617152	2.02977
0.64	0.108918	0.039035	-0.0599573	0.628703	1.02817	-0.207263	-0.286464	-0.102683	-0.235966	0.590723	0.0659023	0.199435	-0.0134455	0.292989	0.0209071	-0.265238	0.305644	-0.0186956	0.143724	-0.0106583	-0.345157	-0.0651039	0.115041	0.0570838	-0.206354	-0.215563	0.784911	1.95409	-0.215753	-0.197069	-0.134104	0.624292	2.03006
0.65	0.10896	0.0502254	-0.0593183	0.643136	1.02928	-0.207872	-0.261929	-0.122364	-0.227761	0.648073	0.00582492	0.162369	-0.013468	0.285889	0.0338115	-0.259593	0.320079	-0.00769271	0.127109	-0.0107127	-0.343772	-0.0788292	0.105596	0.0499549	-0.19947	-0.214704	0.777321	1.95418	-0.207113	-0.199441	-0.127353	0.632294	2.02907
0.66	0.108366	0.0608104	-0.0583132	0.657383	1.03041	-0.208534	-0.233227	-0.141333	-0.218778	0.708729	-0.0567942	0.123307	-0.0134905	0.278445	0.0466239	-0.25362	0.332405	0.00619143	0.113404	-0.010767	-0.342072	-0.0914787	0.0958327	0.0431781	-0.19319	-0.213321	0.769395	1.95476	-0.19762	-0.20177	-0.120386	0.640878	2.02691
0.67	0.10731	0.0705628	-0.0571896	0.671428	1.03155	-0.209211	-0.201009	-0.159234	-0.20904	0.771484	-0.120164	0.0829237	-0.013513	0.270502	0.0589192	-0.24792	0.34263	0.0221544	0.102848	-0.0108213	-0.34024	-0.102898	0.0861084	0.0368127	-0.187607	-0.211436	0.76121	1.95578	-0.187139	-0.204084	-0.112984	0.649763	2.02364
0.68	0.106021	0.0792605	-0.0561974	0.685261	1.03269	-0.209866	-0.166074	-0.175686	-0.19864	0.83499	-0.182132	0.04198	-0.0135355	0.261896	0.0702512	-0.243023	0.350868	0.0394431	0.0954771	-0.0108757	-0.338491	-0.112932	0.076776	0.0309074	-0.182786	-0.20905	0.752795	1.95718	-0.175553	-0.206406	-0.104952	0.658684	2.01933
0.69	0.104766	0.0867059	-0.0555464	0.698884	1.03385	-0.210465	-0.12932	-0.190321	-0.187743	0.897864	-0.24027	0.0013152	-0.0135581	0.252443	0.080217	-0.239322	0.357302	0.0574165	0.0911682	-0.01093	-0.337057	-0.121444	0.0681345	0.0254985	-0.178765	-0.20616	0.744144	1.95884	-0.162781	-0.20875	-0.0961545	0.667423	2.01411
0.7	0.10383	0.0927473	-0.0553742	0.712309	1.03503	-0.210981	-0.091672	-0.202822	-0.17657	0.958789	-0.29204	-0.0381695	-0.0135806	0.241934	0.0885132	-0.237025	0.362131	0.0755683	0.089684	-0.0109844	-0.336173	-0.128331	0.0603923	0.0206036	-0.175542	-0.202775	0.73523	1.96066	-0.148783	-0.211123	-0.0865463	0.675818	2.00817
0.71	0.103486	0.0973005	-0.0557287	0.725552	1.03624	-0.211398	-0.0540146	-0.212963	-0.16537	1.0166	-0.335041	-0.0755474	-0.0136032	0.23015	0.0949765	-0.236145	0.365522	0.0935175	0.0907134	-0.0110388	-0.336057	-0.133546	0.053647	0.0162155	-0.173082	-0.198937	0.726029	1.96257	-0.133565	-0.213519	-0.0761857	0.683777	2.00185
0.72	0.103963	0.100366	-0.0565685	0.738634	1.03752	-0.211714	-0.0171263	-0.220649	-0.154403	1.07034	-0.367311	-0.109918	-0.0136257	0.216873	0.0996061	-0.236518	0.367576	0.110979	0.0938976	-0.0110931	-0.336891	-0.137108	0.0478836	0.0122978	-0.171318	-0.19474	0.716542	1.96451	-0.117188	-0.21592	-0.0652289	0.691283	1.99551
